<?xml version="1.0" encoding="UTF-8"?>
<svg version="1.1" xmlns="http://www.w3.org/2000/svg" width="907" height="333">
<path d="M0 0 C299.31 0 598.62 0 907 0 C907 109.89 907 219.78 907 333 C607.69 333 308.38 333 0 333 C0 223.11 0 113.22 0 0 Z " fill="#FEFEFE" transform="translate(0,0)"/>
<path d="M0 0 C0.80829254 -0.01253311 1.61658508 -0.02506622 2.44937134 -0.03797913 C3.31605438 -0.02472092 4.18273743 -0.01146271 5.07568359 0.00219727 C5.97854095 -0.00021469 6.88139832 -0.00262665 7.81161499 -0.00511169 C9.72308743 -0.00413276 11.63458804 0.00927191 13.54589844 0.03417969 C16.44355085 0.06824414 19.33810956 0.05490292 22.23583984 0.03540039 C40.00636317 0.04914544 40.00636317 0.04914544 47.84912109 4.63110352 C48.75146484 5.0887207 49.65380859 5.54633789 50.58349609 6.01782227 C58.17644993 10.9179262 62.8643182 17.56918094 65.37646484 26.26391602 C67.38006579 36.29847944 65.4543705 46.44285264 60.30615234 55.27954102 C54.31857257 63.52787745 46.72713704 67.59060525 36.84912109 69.63110352 C32.29734156 69.96657347 27.78490144 69.91775091 23.22412109 69.81860352 C22.02916016 69.80506836 20.83419922 69.7915332 19.60302734 69.77758789 C16.68457309 69.74256644 13.76709761 69.69345344 10.84912109 69.63110352 C10.85697632 71.15247925 10.85697632 71.15247925 10.86499023 72.70458984 C10.88308917 76.46727618 10.89457104 80.22995867 10.90405273 83.99267578 C10.90908174 85.62126309 10.91590575 87.24984589 10.92456055 88.87841797 C10.93668879 91.21916824 10.94236372 93.55985881 10.94677734 95.90063477 C10.95193863 96.62885941 10.95709991 97.35708405 10.9624176 98.1073761 C10.96276388 101.2271264 10.84367713 103.6474354 9.84912109 106.63110352 C7.03655828 106.65794664 4.22424868 106.67786539 1.41162109 106.69360352 C0.60917969 106.70198242 -0.19326172 106.71036133 -1.02001953 106.71899414 C-3.06383112 106.72761782 -5.10771792 106.68338501 -7.15087891 106.63110352 C-9.31118325 104.47079918 -8.31914661 99.41740239 -8.32788086 96.41723633 C-8.33445206 95.44976471 -8.34102325 94.48229309 -8.34779358 93.48550415 C-8.36758167 90.26841158 -8.37920196 87.05136583 -8.38916016 83.83422852 C-8.39323568 82.73813011 -8.39731121 81.64203171 -8.40151024 80.5127182 C-8.42239541 74.71038499 -8.43668599 68.9080756 -8.44604492 63.10571289 C-8.45710898 57.10533828 -8.49150215 51.10533457 -8.53121662 45.10509109 C-8.55733844 40.49830425 -8.56573287 35.89160629 -8.5693264 31.28475189 C-8.57420455 29.07273608 -8.58585324 26.86072456 -8.6043644 24.64878082 C-8.62865902 21.55307003 -8.62780817 18.45832536 -8.62084961 15.36254883 C-8.63365967 14.4470224 -8.64646973 13.53149597 -8.65966797 12.58822632 C-8.62602978 8.48583149 -8.46627055 6.17793734 -6.38093567 2.56233215 C-3.9777179 0.48114613 -3.11613979 0.00423853 0 0 Z " fill="#D4312B" transform="translate(363.15087890625,113.368896484375)"/>
<path d="M0 0 C7.25963677 7.93495182 8.43348288 15.8063002 8.31640625 26.27734375 C8.31881821 27.52125381 8.32123016 28.76516388 8.32371521 30.04676819 C8.3227409 32.65792044 8.30944764 35.26909443 8.28442383 37.88012695 C8.26135403 40.55736846 8.25022037 43.23058054 8.26391602 45.9074707 C8.28262718 49.78115568 8.27331374 53.65368052 8.25390625 57.52734375 C8.26134605 59.32727028 8.26134605 59.32727028 8.26893616 61.16355896 C8.25309982 62.27223831 8.23726349 63.38091766 8.22094727 64.52319336 C8.21474869 65.49896835 8.20855011 66.47474335 8.2021637 67.48008728 C7.6875 69.9375 7.6875 69.9375 5.81065369 71.70289612 C-3.40393314 77.06113502 -13.54982934 77.37313959 -23.9375 77.5 C-25.06873291 77.52666748 -26.19996582 77.55333496 -27.36547852 77.58081055 C-36.70433153 77.54078786 -44.76849017 75.34550737 -52.3125 69.6875 C-57.79049149 62.1552617 -59.48865295 55.237596 -58.3125 45.9375 C-56.61029966 38.77617196 -53.58983585 33.84857448 -47.3125 29.9375 C-41.00888355 26.62597177 -35.60245507 24.80336758 -28.453125 24.83984375 C-27.33808594 24.84306641 -26.22304687 24.84628906 -25.07421875 24.84960938 C-23.91535156 24.85798828 -22.75648438 24.86636719 -21.5625 24.875 C-20.38816406 24.87951172 -19.21382812 24.88402344 -18.00390625 24.88867188 C-15.10671928 24.90044906 -12.20963546 24.91689674 -9.3125 24.9375 C-9.56870684 23.3309324 -9.84305871 21.7272517 -10.125 20.125 C-10.27582031 19.23167969 -10.42664063 18.33835938 -10.58203125 17.41796875 C-11.38027848 14.70734315 -12.12093881 13.6691039 -14.3125 11.9375 C-22.51317195 8.04218082 -32.01187518 9.83603103 -40.5859375 11.5 C-43.21574314 11.92197454 -45.65482511 12.01481418 -48.3125 11.9375 C-48.84644179 10.5257217 -49.36415104 9.10779756 -49.875 7.6875 C-50.16503906 6.89859375 -50.45507812 6.1096875 -50.75390625 5.296875 C-51.37528628 2.67230482 -51.44852231 1.38391082 -50.3125 -1.0625 C-48.5625 -2.07421875 -48.5625 -2.07421875 -46.3125 -2.75 C-45.590625 -2.98074219 -44.86875 -3.21148437 -44.125 -3.44921875 C-30.2018096 -6.48524777 -12.42269938 -7.73488829 0 0 Z " fill="#030303" transform="translate(207.3125,142.0625)"/>
<path d="M0 0 C7.43156265 7.88196038 8.37760832 16.78417026 8.3984375 27.2265625 C8.4084227 28.9641835 8.4084227 28.9641835 8.41860962 30.73690796 C8.42871288 33.1794069 8.43342736 35.62193331 8.43310547 38.06445312 C8.4374929 41.80644748 8.47387825 45.54727553 8.51171875 49.2890625 C8.51758442 51.66405847 8.52155548 54.03906003 8.5234375 56.4140625 C8.53780853 57.53390533 8.55217957 58.65374817 8.56698608 59.80752563 C8.56083282 60.84895721 8.55467957 61.89038879 8.54833984 62.96337891 C8.55118988 63.87793854 8.55403992 64.79249817 8.55697632 65.73477173 C7.90744356 68.95661935 6.57142431 70.13408114 4.0625 72.1875 C1.625 73.19921875 1.625 73.19921875 -0.9375 73.875 C-2.2059375 74.22111328 -2.2059375 74.22111328 -3.5 74.57421875 C-4.304375 74.77660156 -5.10875 74.97898437 -5.9375 75.1875 C-6.52208984 75.35950928 -7.10667969 75.53151855 -7.70898438 75.70874023 C-12.83595503 76.81018518 -18.21559515 76.50316017 -23.4375 76.5625 C-24.654375 76.59988281 -25.87125 76.63726562 -27.125 76.67578125 C-36.36103403 76.76458927 -45.05555357 75.4549865 -52.23413086 69.17993164 C-57.98006423 63.11482238 -59.44350079 57.29397677 -59.2421875 49.0625 C-58.41194017 41.22837131 -55.3759735 35.82885429 -49.42578125 30.7578125 C-40.71445179 25.26023881 -33.64213999 24.66440983 -23.375 24.9375 C-22.08013672 24.95554688 -20.78527344 24.97359375 -19.45117188 24.9921875 C-16.27916586 25.03900678 -13.10873296 25.10457527 -9.9375 25.1875 C-10.03852787 23.74898376 -10.15637438 22.3116425 -10.28125 20.875 C-10.34505859 20.07449219 -10.40886719 19.27398437 -10.47460938 18.44921875 C-11.18784555 14.96429261 -13.23730091 13.34765928 -15.9375 11.1875 C-16.2675 10.8575 -16.5975 10.5275 -16.9375 10.1875 C-18.49922745 10.10064397 -20.06479344 10.08047781 -21.62890625 10.08984375 C-23.04526367 10.09467773 -23.04526367 10.09467773 -24.49023438 10.09960938 C-25.98006836 10.11217773 -25.98006836 10.11217773 -27.5 10.125 C-28.49708984 10.12951172 -29.49417969 10.13402344 -30.52148438 10.13867188 C-32.99354849 10.15049993 -35.46549518 10.16698151 -37.9375 10.1875 C-41.58638743 1.9726767 -41.58638743 1.9726767 -40.9375 -1.8125 C-29.17110817 -9.65676122 -11.45471868 -7.06780514 0 0 Z " fill="#D3312B" transform="translate(476.9375,143.8125)"/>
<path d="M0 0 C1.19012695 0.00580078 1.19012695 0.00580078 2.40429688 0.01171875 C3.19384766 0.00785156 3.98339844 0.00398438 4.796875 0 C10.71353554 0.01008808 10.71353554 0.01008808 12.96679688 1.13671875 C12.9704425 2.16766663 12.97408813 3.1986145 12.97784424 4.26080322 C13.01477154 13.97240156 13.07251926 23.68368215 13.15069962 33.3950386 C13.19022358 38.38788425 13.22238788 43.38055222 13.23779297 48.37353516 C13.25292721 53.19129298 13.28731499 58.00856251 13.3351059 62.82610321 C13.34995313 64.6648713 13.3578398 66.50370909 13.35868073 68.34253693 C13.36104213 70.91671421 13.38805361 73.48953296 13.42089844 76.06347656 C13.41586807 76.82520676 13.41083771 77.58693695 13.40565491 78.37174988 C13.47357083 81.80773526 13.71921993 83.79578864 15.76223755 86.60916138 C19.10176134 88.92314501 22.46168403 88.70105454 26.38085938 88.67578125 C27.1917099 88.68757416 28.00256042 88.69936707 28.83798218 88.71151733 C31.42278327 88.74677212 34.00677497 88.75594861 36.59179688 88.76171875 C39.18371749 88.7780443 41.77527566 88.80002655 44.36703491 88.83334351 C45.97845095 88.85302354 47.59003369 88.86230298 49.2015686 88.86026001 C54.74333305 88.91325492 54.74333305 88.91325492 56.96679688 91.13671875 C58.47820028 95.97320965 58.05438374 101.12480397 57.96679688 106.13671875 C55.702009 107.26911269 54.43424049 107.27449966 51.91943359 107.29785156 C50.66705399 107.31226288 50.66705399 107.31226288 49.38937378 107.32696533 C48.48422028 107.33121521 47.57906677 107.33546509 46.64648438 107.33984375 C45.71385773 107.34554382 44.78123108 107.3512439 43.82034302 107.3571167 C41.84150326 107.36657623 39.86264769 107.37310445 37.88378906 107.37695312 C34.87471397 107.38661308 31.86633523 107.41760837 28.85742188 107.44921875 C26.93294676 107.45575347 25.00846676 107.4610021 23.08398438 107.46484375 C21.7444722 107.48336395 21.7444722 107.48336395 20.37789917 107.5022583 C12.24917353 107.473687 5.61778817 105.52084096 -0.49414062 99.953125 C-5.81220838 93.67672523 -7.18317623 85.96381722 -7.16259766 78.00927734 C-7.16434998 77.18139206 -7.16610229 76.35350677 -7.16790771 75.50053406 C-7.17231182 72.76205352 -7.16939383 70.02363745 -7.16601562 67.28515625 C-7.16668895 65.38611844 -7.16765921 63.48708072 -7.16891479 61.58804321 C-7.17038971 57.60849181 -7.16824334 53.62896286 -7.16357422 49.64941406 C-7.1578693 44.53668628 -7.16116207 39.42401089 -7.16714668 34.31128502 C-7.17075125 30.39093629 -7.16961433 26.4706001 -7.16701889 22.55025101 C-7.16634973 20.66430276 -7.16717766 18.7783534 -7.16949844 16.89240646 C-7.17202409 14.26336375 -7.16818599 11.63440734 -7.16259766 9.00537109 C-7.16462189 8.21886673 -7.16664612 7.43236237 -7.16873169 6.62202454 C-7.142279 -0.05950056 -6.65996539 0.01137483 0 0 Z " fill="#060606" transform="translate(87.033203125,111.86328125)"/>
<path d="M0 0 C1.13637609 4.02377194 0.9020261 6.07770458 -0.9375 9.8125 C-1.50791016 10.99779297 -1.50791016 10.99779297 -2.08984375 12.20703125 C-2.39019531 12.79871094 -2.69054687 13.39039063 -3 14 C-3.87140625 13.7834375 -4.7428125 13.566875 -5.640625 13.34375 C-19.1038327 9.9560239 -19.1038327 9.9560239 -32.3125 12.5625 C-34.30608322 14.98690145 -34.30608322 14.98690145 -34.1875 18.5 C-32.74207217 22.76020835 -30.80325208 23.98346843 -27 26 C-23.71065913 27.45264769 -20.36467964 28.73329708 -17 30 C-9.63688947 32.77199455 -2.81522058 35.35010743 2.3125 41.625 C2.80363281 42.21539062 3.29476562 42.80578125 3.80078125 43.4140625 C7.23379421 47.95413828 6.39093611 53.55481845 6 59 C4.71829438 64.23991415 1.83555239 69.21694522 -2.7890625 72.125 C-10.26302728 76.04955293 -17.32120738 77.36656328 -25.6875 77.3125 C-26.56946045 77.30831055 -27.4514209 77.30412109 -28.36010742 77.29980469 C-38.20281433 77.13018062 -46.70386927 75.46790434 -55 70 C-54.48474397 64.71862571 -52.74522883 61.42778844 -50 57 C-49.32453125 57.20496094 -48.6490625 57.40992188 -47.953125 57.62109375 C-47.06109375 57.89050781 -46.1690625 58.15992188 -45.25 58.4375 C-44.36828125 58.70433594 -43.4865625 58.97117188 -42.578125 59.24609375 C-37.07547149 60.85520303 -32.22559249 61.21545646 -26.5 61.25 C-25.64535156 61.270625 -24.79070312 61.29125 -23.91015625 61.3125 C-19.00784354 61.34682799 -19.00784354 61.34682799 -14.453125 59.7265625 C-12.4346368 57.32825125 -12.20046307 55.05792785 -12.36401367 51.9777832 C-13.41397611 48.71262171 -15.77054049 47.86054623 -18.62451172 46.20507812 C-22.60379186 44.18640117 -26.74821457 42.70640364 -30.9375 41.1875 C-39.13683291 38.06722745 -46.2079366 34.76293845 -51.1875 27.1953125 C-53.42234675 21.1569285 -52.99895133 13.33088644 -50.5 7.5 C-35.53168452 -7.46831548 -18.88108174 -5.62415201 0 0 Z " fill="#040404" transform="translate(277,142)"/>
<path d="M0 0 C-0.47939368 4.71403788 -0.96834048 8.66579301 -3 13 C-3.58007812 12.86722656 -4.16015625 12.73445313 -4.7578125 12.59765625 C-7.16924761 12.05249683 -9.58407264 11.52485321 -12 11 C-13.3921875 10.690625 -13.3921875 10.690625 -14.8125 10.375 C-24.28429656 9.1803375 -24.28429656 9.1803375 -33.25 11.625 C-35.20268667 13.92982123 -35.20268667 13.92982123 -35.625 17 C-34.76977463 21.10508179 -33.49702904 21.67445391 -30 24 C-25.51362166 26.03943282 -20.89023845 27.73461482 -16.27929688 29.46875 C-8.44777396 32.52651867 -0.59976938 36.57132637 4.15234375 43.8203125 C6.51895453 49.90588309 6.05867093 57.47109244 3.5 63.4375 C-0.3334215 69.79079298 -6.69343475 73.6900109 -13.7734375 75.53125 C-28.11765301 77.6151554 -43.61388243 77.16357749 -56 69 C-55.39254603 64.14036821 -53.27241033 60.2594482 -51 56 C-50.38253906 56.19335938 -49.76507812 56.38671875 -49.12890625 56.5859375 C-33.42775871 61.63889187 -33.42775871 61.63889187 -17.4375 59.6875 C-14.78000461 58.06906832 -14.78000461 58.06906832 -13 55 C-12.68849868 52.02323485 -12.68849868 52.02323485 -14 49 C-18.97983837 44.87639135 -24.98208712 42.69105098 -31 40.5625 C-39.656458 37.34341822 -46.67819508 33.87627128 -52 26 C-54.05580911 19.83257266 -54.09912551 12.51882929 -51.5 6.5625 C-38.23475181 -7.0343794 -16.80163184 -9.28936376 0 0 Z " fill="#D3302A" transform="translate(614,144)"/>
<path d="M0 0 C1.13637609 4.02377194 0.9020261 6.07770458 -0.9375 9.8125 C-1.50791016 10.99779297 -1.50791016 10.99779297 -2.08984375 12.20703125 C-2.39019531 12.79871094 -2.69054687 13.39039063 -3 14 C-3.56847656 13.86722656 -4.13695312 13.73445313 -4.72265625 13.59765625 C-19.13815554 9.98155017 -19.13815554 9.98155017 -33.25 12.5625 C-35.31393862 14.97514258 -35.31393862 14.97514258 -35.1875 18.5 C-33.74207217 22.76020835 -31.80325208 23.98346843 -28 26 C-24.71065913 27.45264769 -21.36467964 28.73329708 -18 30 C-10.63688947 32.77199455 -3.81522058 35.35010743 1.3125 41.625 C1.80363281 42.21539062 2.29476562 42.80578125 2.80078125 43.4140625 C6.54266088 48.36260689 5.46860965 55.09947852 5 61 C3.39508941 66.41084141 -0.48339675 69.81180947 -5 73 C-17.33631442 79.05994393 -33.60753724 78.74156116 -46.6328125 74.8671875 C-49.58858697 73.78437903 -52.28107068 72.5860421 -55 71 C-54.55966813 65.80408388 -54.11696661 62.33664919 -51 58 C-46.44835416 58.52926114 -42.13494312 59.44801071 -37.6875 60.5625 C-29.08268241 62.56798562 -21.90930291 63.37535906 -14 59 C-12.18103027 55.36206054 -12.74745798 51.75762607 -14 48 C-16.09312551 46.92908599 -16.09312551 46.92908599 -19 46 C-20.51777471 45.42754251 -22.03317166 44.84876294 -23.546875 44.265625 C-24.38798828 43.94182861 -25.22910156 43.61803223 -26.09570312 43.28442383 C-46.62729559 35.28291929 -46.62729559 35.28291929 -52 27 C-53.89107698 21.32676906 -54.17769221 15.00716064 -51.9765625 9.38671875 C-40.69475451 -9.15658444 -17.6075544 -4.82753022 0 0 Z " fill="#D3302A" transform="translate(547,143)"/>
<path d="M0 0 C0 6.6 0 13.2 0 20 C5.61 20 11.22 20 17 20 C17 24.29 17 28.58 17 33 C11.39 33 5.78 33 0 33 C0.04407149 39.35427277 0.11381945 45.70754417 0.20751953 52.0612793 C0.23576861 54.22330766 0.25696346 56.38544005 0.27099609 58.54760742 C0.29237096 61.65337541 0.33899343 64.75788732 0.390625 67.86328125 C0.39185364 68.83211746 0.39308228 69.80095367 0.39434814 70.79914856 C0.41406677 71.6998558 0.4337854 72.60056305 0.45410156 73.52856445 C0.46298401 74.32132278 0.47186646 75.11408112 0.48101807 75.93086243 C0.84392699 78.17746727 0.84392699 78.17746727 2.90246582 79.75817871 C5.28807411 81.17055101 6.58090031 81.35183785 9.328125 81.29296875 C10.52695312 81.2784668 10.52695312 81.2784668 11.75 81.26367188 C12.575 81.23853516 13.4 81.21339844 14.25 81.1875 C15.09046875 81.17396484 15.9309375 81.16042969 16.796875 81.14648438 C18.86485938 81.11123464 20.93251271 81.0574302 23 81 C23.80489089 84.01903711 24.10855119 86.61851889 24.0625 89.75 C24.05347656 90.54921875 24.04445313 91.3484375 24.03515625 92.171875 C24.02355469 92.77515625 24.01195312 93.3784375 24 94 C17.89870361 96.71168728 12.47008941 97.3266154 5.875 97.375 C5.1113916 97.38853516 4.3477832 97.40207031 3.56103516 97.41601562 C-3.0034092 97.36487518 -7.6926163 95.94845735 -12.8125 91.625 C-16.22497886 87.53002537 -17.25328408 84.03674285 -17.22705078 78.75073242 C-17.22682419 77.21971138 -17.22682419 77.21971138 -17.22659302 75.65776062 C-17.21110916 74.02312614 -17.21110916 74.02312614 -17.1953125 72.35546875 C-17.1924826 71.2305452 -17.18965271 70.10562164 -17.18673706 68.9466095 C-17.17555836 65.36013064 -17.15045763 61.77390315 -17.125 58.1875 C-17.11496723 55.75325882 -17.1058419 53.31901372 -17.09765625 50.88476562 C-17.07562652 44.9230805 -17.04111218 38.96158284 -17 33 C-21.29 33 -25.58 33 -30 33 C-29.50269348 28.02693484 -28.44697666 24.36200187 -26 20 C-23.03 20 -20.06 20 -17 20 C-17.04640625 18.87980469 -17.0928125 17.75960937 -17.140625 16.60546875 C-17.17814423 15.13283915 -17.21454423 13.66018073 -17.25 12.1875 C-17.30027344 11.08051758 -17.30027344 11.08051758 -17.3515625 9.95117188 C-17.4501918 4.50190302 -17.4501918 4.50190302 -15.265625 2.06640625 C-12.99163259 0.99606155 -10.95745562 0.27178852 -8.5 -0.25 C-7.7471875 -0.42015625 -6.994375 -0.5903125 -6.21875 -0.765625 C-4 -1 -4 -1 0 0 Z " fill="#020202" transform="translate(316,122)"/>
<path d="M0 0 C3.444375 -0.061875 6.88875 -0.12375 10.4375 -0.1875 C11.50411865 -0.21481201 12.5707373 -0.24212402 13.66967773 -0.27026367 C20.7144142 -0.33087617 27.50777059 0.15940035 33.15625 4.75390625 C33.5996875 5.35074219 34.043125 5.94757813 34.5 6.5625 C34.9640625 7.16191406 35.428125 7.76132813 35.90625 8.37890625 C39.24237024 13.32351303 38.49754821 19.24666079 38 25 C35.73741087 29.96029156 32.71531343 32.34763619 28 35 C24.75448715 36.06010299 21.7606695 36.11574824 18.359375 36.09765625 C17.39483398 36.09515869 16.43029297 36.09266113 15.43652344 36.09008789 C13.61169434 36.07643188 13.61169434 36.07643188 11.75 36.0625 C7.8725 36.041875 3.995 36.02125 0 36 C0 24.12 0 12.24 0 0 Z " fill="#FDF8F8" transform="translate(374,131)"/>
<path d="M0 0 C3 0.25 3 0.25 5 2.25 C5.20363264 4.85372066 5.28320857 7.35153159 5.2746582 9.95678711 C5.27976913 10.75205307 5.28488007 11.54731903 5.29014587 12.36668396 C5.30408109 15.00364646 5.30308215 17.64034874 5.30078125 20.27734375 C5.3046661 22.10575966 5.30900032 23.93417467 5.31376648 25.7625885 C5.32123719 29.59850996 5.32093132 33.43433939 5.31567383 37.27026367 C5.3098788 42.19125966 5.32680681 47.11187932 5.3500185 52.03281307 C5.36473519 55.81000479 5.36563036 59.58710545 5.36250877 63.36432076 C5.36302305 65.17884631 5.36828069 66.99337683 5.37832069 68.80787468 C5.39062764 71.34343945 5.38392831 73.87826582 5.37231445 76.41381836 C5.37995819 77.166651 5.38760193 77.91948364 5.39547729 78.69512939 C5.36521634 81.67706039 5.34393223 83.74499909 3.6368866 86.2514801 C2 87.25 2 87.25 -0.5625 87.0625 C-3 86.25 -3 86.25 -5 84.25 C-5.198396 81.64076595 -5.27275976 79.13767473 -5.25878906 76.52734375 C-5.26404602 75.33203537 -5.26404602 75.33203537 -5.26940918 74.11257935 C-5.27823278 71.47079838 -5.27237518 68.82928383 -5.265625 66.1875 C-5.26697147 64.35668893 -5.26891185 62.5258782 -5.27142334 60.69506836 C-5.27437545 56.8549459 -5.27007417 53.01491637 -5.26074219 49.17480469 C-5.2493476 44.24481306 -5.2559066 39.31503917 -5.26788712 34.38505554 C-5.27510337 30.60362091 -5.27281887 26.82223817 -5.26763153 23.040802 C-5.26629438 21.22266616 -5.26794502 19.40452566 -5.27259064 17.58639526 C-5.27765204 15.04835474 -5.26995123 12.51067016 -5.25878906 9.97265625 C-5.26283752 9.21622833 -5.26688599 8.45980042 -5.27105713 7.68045044 C-5.21181608 0.43431801 -5.21181608 0.43431801 0 0 Z " fill="#D4322C" transform="translate(822,134.75)"/>
<path d="M0 0 C5.28097404 1.79353835 7.79895251 4.60999202 11 9 C12.66026461 13.98079383 12.59903425 18.30273629 10.875 23.1875 C8.28535548 27.07196678 5.22685959 29.88657021 1 32 C-4.48320778 32.50071209 -9.39459862 32.68802916 -14.5 30.5 C-18.89951295 26.10048705 -21.18287465 21.64351115 -21.5 15.375 C-21.27983199 10.96404786 -19.90898907 8.38071703 -17 5 C-11.29547523 -0.02541467 -7.4679183 -0.62136762 0 0 Z " fill="#D32F29" transform="translate(667,164)"/>
<path d="M0 0 C5.67458978 1.92721917 9.32050871 5.64101742 12 11 C12.81168623 17.41365187 11.94370503 22.78489156 8 28 C2.96591801 32.19506832 -1.62639773 32.74322386 -8.12109375 32.515625 C-12.69669269 31.69611474 -15.17996581 29.5951313 -18 26 C-20.99831754 21.55088365 -21.92117406 17.2916332 -21 12 C-17.16231182 1.82806304 -10.00439017 -0.83241459 0 0 Z " fill="#D32F29" transform="translate(777,164)"/>
<path d="M0 0 C5.67458978 1.92721917 9.32050871 5.64101742 12 11 C12.59057744 16.67862925 12.29370905 21.16922672 9 26 C3.57574029 31.33747156 -0.3670418 32.52558869 -7.875 32.48046875 C-13.00601844 31.69157467 -15.82732424 28.95338655 -19 25 C-21.47373101 20.98018711 -21.57328108 16.62264742 -21 12 C-17.45632291 1.95958157 -9.90506105 -0.82414992 0 0 Z " fill="#D32F29" transform="translate(722,164)"/>
<path d="M0 0 C1.26034058 0.00749268 1.26034058 0.00749268 2.54614258 0.01513672 C4.12238403 0.04244873 4.12238403 0.04244873 5.73046875 0.0703125 C9.09234375 0.1115625 12.45421875 0.1528125 15.91796875 0.1953125 C15.91796875 7.4553125 15.91796875 14.7153125 15.91796875 22.1953125 C10.09482112 23.65109941 6.07770303 24.51042912 0.29296875 24.5703125 C-1.58261719 24.61285156 -1.58261719 24.61285156 -3.49609375 24.65625 C-7.71201063 24.11433476 -9.8065787 22.85601735 -13.08203125 20.1953125 C-15.9069685 15.95790663 -15.86091845 12.17065317 -15.08203125 7.1953125 C-11.170467 1.83088153 -6.52331388 -0.08004066 0 0 Z " fill="#FCFCFC" transform="translate(182.08203125,180.8046875)"/>
<path d="M0 0 C4.9809375 0.0928125 4.9809375 0.0928125 10.0625 0.1875 C10.0625 7.4475 10.0625 14.7075 10.0625 22.1875 C4.34984457 23.61566386 0.56877459 24.48110311 -5.0625 24.5 C-6.22007812 24.51675781 -7.37765625 24.53351563 -8.5703125 24.55078125 C-13.29283565 24.04127469 -16.70113175 22.62992962 -19.8125 19 C-21.71047209 14.25506977 -21.67827432 10.14837321 -19.875 5.375 C-14.54278114 -0.6452471 -7.43510222 -0.19665286 0 0 Z " fill="#FEFCFC" transform="translate(456.9375,181.8125)"/>
</svg>
